REM DIRINDEX 1\2,1\4,1\3\5,1\3\6,1\3\7
REM DIRNAME cjc082,folder01,folder02,folder03,folder04,folder05,folder06
TITLE ""
FILE "CD3Track18.mp3" MP3
  TRACK 01 AUDIO
    TITLE "0:"
    INDEX 01 00:00:00
  TRACK 02 AUDIO
    TITLE "4:cjc082_2621"
    INDEX 01 00:00:27
  TRACK 03 AUDIO
    TITLE "0:"
    INDEX 01 00:04:44
  TRACK 04 AUDIO
    TITLE "5:cjc082_2622"
    INDEX 01 00:05:12
  TRACK 05 AUDIO
    TITLE "0:"
    INDEX 01 00:06:45
  TRACK 06 AUDIO
    TITLE "6:cjc082_2623"
    INDEX 01 00:07:15
  TRACK 07 AUDIO
    TITLE "0:"
    INDEX 01 00:08:21
  TRACK 08 AUDIO
    TITLE "5:cjc082_2624"
    INDEX 01 00:08:64
  TRACK 09 AUDIO
    TITLE "0:"
    INDEX 01 00:10:00
  TRACK 10 AUDIO
    TITLE "6:cjc082_2625"
    INDEX 01 00:10:43
  TRACK 11 AUDIO
    TITLE "0:"
    INDEX 01 00:11:42
  TRACK 12 AUDIO
    TITLE "5:cjc082_2626"
    INDEX 01 00:12:11
  TRACK 13 AUDIO
    TITLE "0:"
    INDEX 01 00:13:43
  TRACK 14 AUDIO
    TITLE "6:cjc082_2627"
    INDEX 01 00:14:15
  TRACK 15 AUDIO
    TITLE "0:"
    INDEX 01 00:15:36
  TRACK 16 AUDIO
    TITLE "5:cjc082_2628"
    INDEX 01 00:16:08
  TRACK 17 AUDIO
    TITLE "0:"
    INDEX 01 00:17:29
  TRACK 18 AUDIO
    TITLE "6:cjc082_2629"
    INDEX 01 00:18:03
  TRACK 19 AUDIO
    TITLE "0:"
    INDEX 01 00:19:65
  TRACK 20 AUDIO
    TITLE "5:cjc082_2630"
    INDEX 01 00:20:32
  TRACK 21 AUDIO
    TITLE "0:"
    INDEX 01 00:21:51
  TRACK 22 AUDIO
    TITLE "6:cjc082_2631"
    INDEX 01 00:22:32
  TRACK 23 AUDIO
    TITLE "0:"
    INDEX 01 00:23:57
  TRACK 24 AUDIO
    TITLE "5:cjc082_2632"
    INDEX 01 00:24:29
  TRACK 25 AUDIO
    TITLE "0:"
    INDEX 01 00:25:39
  TRACK 26 AUDIO
    TITLE "6:cjc082_2633"
    INDEX 01 00:26:11
  TRACK 27 AUDIO
    TITLE "0:"
    INDEX 01 00:27:24
  TRACK 28 AUDIO
    TITLE "5:cjc082_2634"
    INDEX 01 00:27:67
  TRACK 29 AUDIO
    TITLE "0:"
    INDEX 01 00:29:13
  TRACK 30 AUDIO
    TITLE "6:cjc082_2635"
    INDEX 01 00:29:56
  TRACK 31 AUDIO
    TITLE "0:"
    INDEX 01 00:30:63
  TRACK 32 AUDIO
    TITLE "5:cjc082_2636"
    INDEX 01 00:31:31
  TRACK 33 AUDIO
    TITLE "0:"
    INDEX 01 00:32:60
  TRACK 34 AUDIO
    TITLE "6:cjc082_2637"
    INDEX 01 00:33:28
  TRACK 35 AUDIO
    TITLE "0:"
    INDEX 01 00:34:55
  TRACK 36 AUDIO
    TITLE "5:cjc082_2638"
    INDEX 01 00:35:21
  TRACK 37 AUDIO
    TITLE "0:"
    INDEX 01 00:36:27
  TRACK 38 AUDIO
    TITLE "6:cjc082_2639"
    INDEX 01 00:37:01
  TRACK 39 AUDIO
    TITLE "0:"
    INDEX 01 00:38:30
  TRACK 40 AUDIO
    TITLE "5:cjc082_2640"
    INDEX 01 00:39:02
  TRACK 41 AUDIO
    TITLE "0:"
    INDEX 01 00:40:09
  TRACK 42 AUDIO
    TITLE "6:cjc082_2641"
    INDEX 01 00:40:54
  TRACK 43 AUDIO
    TITLE "0:"
    INDEX 01 00:41:57
  TRACK 44 AUDIO
    TITLE "5:cjc082_2642"
    INDEX 01 00:42:33
  TRACK 45 AUDIO
    TITLE "0:"
    INDEX 01 00:43:48
  TRACK 46 AUDIO
    TITLE "6:cjc082_2643"
    INDEX 01 00:44:14
  TRACK 47 AUDIO
    TITLE "0:"
    INDEX 01 00:45:39
  TRACK 48 AUDIO
    TITLE "5:cjc082_2644"
    INDEX 01 00:46:09
  TRACK 49 AUDIO
    TITLE "0:"
    INDEX 01 00:47:30
  TRACK 50 AUDIO
    TITLE "6:cjc082_2645"
    INDEX 01 00:48:02
  TRACK 51 AUDIO
    TITLE "0:"
    INDEX 01 00:49:37
  TRACK 52 AUDIO
    TITLE "5:cjc082_2646"
    INDEX 01 00:50:05
  TRACK 53 AUDIO
    TITLE "0:"
    INDEX 01 00:51:34
  TRACK 54 AUDIO
    TITLE "6:cjc082_2647"
    INDEX 01 00:52:04
  TRACK 55 AUDIO
    TITLE "0:"
    INDEX 01 00:53:17
  TRACK 56 AUDIO
    TITLE "5:cjc082_2648"
    INDEX 01 00:53:66
  TRACK 57 AUDIO
    TITLE "0:"
    INDEX 01 00:55:03
  TRACK 58 AUDIO
    TITLE "6:cjc082_2649"
    INDEX 01 00:55:50
  TRACK 59 AUDIO
    TITLE "0:"
    INDEX 01 00:59:30
  TRACK 60 AUDIO
    TITLE "5:cjc082_2650"
    INDEX 01 01:00:04
  TRACK 61 AUDIO
    TITLE "0:"
    INDEX 01 01:01:07
  TRACK 62 AUDIO
    TITLE "6:cjc082_2651"
    INDEX 01 01:01:58
  TRACK 63 AUDIO
    TITLE "0:"
    INDEX 01 01:02:69
  TRACK 64 AUDIO
    TITLE "5:cjc082_2652"
    INDEX 01 01:03:43
  TRACK 65 AUDIO
    TITLE "0:"
    INDEX 01 01:04:70
  TRACK 66 AUDIO
    TITLE "6:cjc082_2653"
    INDEX 01 01:05:40
  TRACK 67 AUDIO
    TITLE "0:"
    INDEX 01 01:06:36
  TRACK 68 AUDIO
    TITLE "5:cjc082_2654"
    INDEX 01 01:07:08
  TRACK 69 AUDIO
    TITLE "0:"
    INDEX 01 01:08:33
  TRACK 70 AUDIO
    TITLE "6:cjc082_2655"
    INDEX 01 01:09:05
  TRACK 71 AUDIO
    TITLE "0:"
    INDEX 01 01:11:37
  TRACK 72 AUDIO
    TITLE "5:cjc082_2656"
    INDEX 01 01:12:13
  TRACK 73 AUDIO
    TITLE "0:"
    INDEX 01 01:13:28
  TRACK 74 AUDIO
    TITLE "6:cjc082_2657"
    INDEX 01 01:13:73
  TRACK 75 AUDIO
    TITLE "0:"
    INDEX 01 01:15:03
  TRACK 76 AUDIO
    TITLE "5:cjc082_2658"
    INDEX 01 01:15:50
  TRACK 77 AUDIO
    TITLE "0:"
    INDEX 01 01:16:58
  TRACK 78 AUDIO
    TITLE "6:cjc082_2659"
    INDEX 01 01:17:32
  TRACK 79 AUDIO
    TITLE "0:"
    INDEX 01 01:18:39
  TRACK 80 AUDIO
    TITLE "7:cjc082_2660"
    INDEX 01 01:20:00
  TRACK 81 AUDIO
    TITLE "0:"
    INDEX 01 01:30:34
